<svg id="Group_26" data-name="Group 26" xmlns="http://www.w3.org/2000/svg" xmlns:xlink="http://www.w3.org/1999/xlink" width="92.456" height="92.456" viewBox="0 0 92.456 92.456">
  <defs>
    <clipPath id="clip-path">
      <rect id="Rectangle_14" data-name="Rectangle 14" width="92.456" height="92.456" fill="none"/>
    </clipPath>
  </defs>
  <g id="Group_27" data-name="Group 27" clip-path="url(#clip-path)">
    <path id="Path_16" data-name="Path 16" d="M92.456,46.228A46.228,46.228,0,1,1,46.228,0,46.228,46.228,0,0,1,92.456,46.228" fill="#ff5100"/>
    <path id="Path_17" data-name="Path 17" d="M140.177,44.578a12.548,12.548,0,0,0-12.533,12.534,3.4,3.4,0,1,0,6.8,0,5.733,5.733,0,1,1,5.732,5.781,3.4,3.4,0,0,0-3.4,3.4v6.683a3.4,3.4,0,0,0,6.8,0V69.222a12.56,12.56,0,0,0-3.4-24.644M142.4,67.514a.971.971,0,0,0-.767.95v4.512a1.458,1.458,0,0,1-2.915,0V66.293a1.459,1.459,0,0,1,1.457-1.458,7.7,7.7,0,1,0-7.675-7.724,1.457,1.457,0,1,1-2.915,0,10.591,10.591,0,1,1,12.815,10.4" transform="translate(-89.029 -31.092)" fill="#fff"/>
    <path id="Path_18" data-name="Path 18" d="M161.234,155.473a3.4,3.4,0,0,0-3.4,3.4v.388a3.4,3.4,0,0,0,6.8,0v-.388a3.4,3.4,0,0,0-3.4-3.4m1.458,3.789a1.458,1.458,0,1,1-2.915,0v-.388a1.458,1.458,0,1,1,2.915,0Z" transform="translate(-110.086 -108.44)" fill="#fff"/>
    <path id="Path_19" data-name="Path 19" d="M73.769,186.819a1.123,1.123,0,1,0,1.123,1.123,1.123,1.123,0,0,0-1.123-1.123" transform="translate(-50.669 -130.303)" fill="#fff"/>
    <path id="Path_20" data-name="Path 20" d="M109.4,180.358,98.819,184A4.48,4.48,0,0,0,94.4,178.71H87.131a1.125,1.125,0,0,1-.551-.144l-5.931-3.336a7.866,7.866,0,0,0-3.854-1.011H68.834a3.373,3.373,0,0,0-3.175-2.245H58.923A1.123,1.123,0,0,0,57.8,173.1v20.209a1.123,1.123,0,0,0,1.123,1.123h6.736a3.376,3.376,0,0,0,3.143-2.161,10.254,10.254,0,0,1,3.666,1.088l5.872,3.523a14.313,14.313,0,0,0,13.287.758l20.955-9.227a4.328,4.328,0,0,0-3.179-8.052M66.782,191.066a1.124,1.124,0,0,1-1.123,1.117H60.046V174.22h5.614a1.124,1.124,0,0,1,1.123,1.123Zm44.947-4.732-.035.015L90.7,195.591a12.066,12.066,0,0,1-11.208-.637l-5.872-3.523a12.368,12.368,0,0,0-4.6-1.4V176.465h7.766a5.615,5.615,0,0,1,2.753.721l5.932,3.336a3.372,3.372,0,0,0,1.653.434H94.4a2.245,2.245,0,1,1,0,4.491H82.988a1.123,1.123,0,0,0,0,2.245H94.4a4.482,4.482,0,0,0,2.1-.526l13.652-4.693a2.084,2.084,0,1,1,1.572,3.86" transform="translate(-40.314 -119.949)" fill="#fff"/>
  </g>
</svg>
