<svg id="Group_28" data-name="Group 28" xmlns="http://www.w3.org/2000/svg" xmlns:xlink="http://www.w3.org/1999/xlink" width="92.456" height="92.456" viewBox="0 0 92.456 92.456">
  <defs>
    <clipPath id="clip-path">
      <rect id="Rectangle_13" data-name="Rectangle 13" width="92.456" height="92.456" fill="none"/>
    </clipPath>
  </defs>
  <g id="Group_25" data-name="Group 25" clip-path="url(#clip-path)">
    <path id="Path_13" data-name="Path 13" d="M92.456,46.228A46.228,46.228,0,1,1,46.228,0,46.228,46.228,0,0,1,92.456,46.228" fill="#ff5100"/>
    <path id="Path_14" data-name="Path 14" d="M126.661,94.588a4.082,4.082,0,0,0-1.2-2.982,4.418,4.418,0,0,0-1.5-.994,4.438,4.438,0,0,0,.539-2.032,3.985,3.985,0,0,0-1.181-2.92,4.3,4.3,0,0,0-1.832-1.092V50.634a3.755,3.755,0,0,0-7.3-1.252H87.855a1.252,1.252,0,0,0-1.006,2l6.861,9.269-6.861,9.27a1.252,1.252,0,0,0,1.006,2h26.121v8.117c-.129-.079-.262-.159-.4-.24l-.055-.03c-.1-.049-.2-.106-.313-.166-1.133-.608-3.242-1.742-5.657-.83a15.085,15.085,0,0,0-5.856,3.856A6.049,6.049,0,0,1,97.4,84.854a1.252,1.252,0,0,0-1.227-1H87.855A1.252,1.252,0,0,0,86.6,85.1v23.545a1.252,1.252,0,0,0,1.252,1.252h8.322a1.252,1.252,0,0,0,1.222-.981,27.527,27.527,0,0,1,3.972.9,22.147,22.147,0,0,0,5.862,1.065H115.6l2.094.088q.085,0,.17,0a4.168,4.168,0,0,0,2.872-1.156A3.878,3.878,0,0,0,121.953,107a4.321,4.321,0,0,0-.4-1.827,4.277,4.277,0,0,0,1.621-.973,3.979,3.979,0,0,0,1.25-2.89,4.4,4.4,0,0,0-.813-2.565,4.43,4.43,0,0,0,3.05-4.156M122,88.523a1.77,1.77,0,0,1-1.675,1.792h-.008l-3.869.095a12.41,12.41,0,0,1,.132-3.448l3.679-.061a1.775,1.775,0,0,1,1.287.525,1.5,1.5,0,0,1,.455,1.1m-4.266-39.141a1.254,1.254,0,0,1,1.252,1.252V84.417l-2.017.033a3.985,3.985,0,0,0-.233-1.533,3.817,3.817,0,0,0-.254-.547V50.634a1.254,1.254,0,0,1,1.252-1.252M90.339,69.411l5.934-8.018a1.251,1.251,0,0,0,0-1.489l-5.934-8.018h23.636V69.411Zm11.7,37.991a27.981,27.981,0,0,0-4.61-1v-3.9a1.252,1.252,0,0,0-2.5,0V107.4H89.107V86.354h5.818v4.887a1.252,1.252,0,1,0,2.5,0V87.363a8.4,8.4,0,0,0,6.023-2.958,12.6,12.6,0,0,1,4.982-3.3c1.35-.509,2.644.186,3.589.694.116.062.224.12.326.172a4.454,4.454,0,0,1,2.036,1.809,3.6,3.6,0,0,1-.106,1.832c-.043.217-.087.44-.128.674a14.888,14.888,0,0,0-.1,5.136c.03.215.056.406.07.566a1.209,1.209,0,0,1-.586.182,2.068,2.068,0,0,1-1.541-.521,3.388,3.388,0,0,1-1.222-2.75,12.008,12.008,0,0,0-.2-1.484,1.252,1.252,0,1,0-2.447.527,9.78,9.78,0,0,1,.159,1.187,7.512,7.512,0,0,0,.428,2.154,7.233,7.233,0,0,1-6.143,4.337,1.252,1.252,0,1,0,0,2.5,9.465,9.465,0,0,0,4.764-1.529,4.22,4.22,0,0,0,.852,1.225l.033.031a3.974,3.974,0,0,0-1.191,2.831,4.327,4.327,0,0,0,2.328,3.876,3.833,3.833,0,0,0-.555,1.991,4.325,4.325,0,0,0,.4,1.825h-1.962a19.994,19.994,0,0,1-5.194-.975m16.964.607a1.65,1.65,0,0,1-1.2.458l-4.982-.209a1.648,1.648,0,0,1-1.519-1.706,1.4,1.4,0,0,1,.447-1.009,1.654,1.654,0,0,1,1.138-.46l.064,0h0l4.983.209A1.649,1.649,0,0,1,119.45,107a1.4,1.4,0,0,1-.448,1.01m2.439-5.617a1.761,1.761,0,0,1-1.285.489l-2.113-.089h-.006l-4.984-.209-1.9-.08a1.759,1.759,0,0,1-1.623-1.818A1.5,1.5,0,0,1,110,99.6a1.757,1.757,0,0,1,1.235-.488h.08l8.978.377a1.759,1.759,0,0,1,1.623,1.818,1.5,1.5,0,0,1-.479,1.083m.931-5.957c-1.567.029-3.585.059-5.537.088s-3.943.058-5.506.087h-.03a1.9,1.9,0,0,1-1.347-.555,1.613,1.613,0,0,1-.488-1.178c0-.01,0-.019,0-.029V94.8a8.514,8.514,0,0,0,.914-1.236,4.506,4.506,0,0,0,2.975,1.118,4.085,4.085,0,0,0,1.744-.373,2.666,2.666,0,0,0,1.369-1.4l3.9-.1,1.922-.02h.02a1.924,1.924,0,0,1,1.364.569,1.6,1.6,0,0,1,.48,1.164,1.885,1.885,0,0,1-1.786,1.906" transform="translate(-60.404 -32.697)" fill="#fff"/>
    <path id="Path_15" data-name="Path 15" d="M115.364,208.006a1.252,1.252,0,1,0,1.252,1.252h0a1.252,1.252,0,0,0-1.252-1.252" transform="translate(-79.591 -145.081)" fill="#fff"/>
  </g>
</svg>
